<svg  viewBox="0 0 448 460" fill="#FF0033" xmlns="http://www.w3.org/2000/svg">
<path fill-rule="evenodd" clip-rule="evenodd" d="M76.2032 0H136L122.967 74.5184L61.8786 86.3887L76.2032 0ZM55.4594 125.101L40.9637 212.521L100.868 200.881L116.184 113.302L55.4594 125.101ZM34.5446 251.234L18.69 346.849L77.3321 335.454L94.0848 239.664L34.5446 251.234ZM0 459.564L12.2708 385.562L70.5493 374.237L55.6265 459.564H0ZM225.868 0L90.4384 459.564H103.167L200.473 362.258L297.779 459.564H447.84L328.26 286.055L400.946 236.816L417.359 219.231L417.659 218.252C436.522 195.209 447.84 165.751 447.84 133.649C447.84 129.517 447.653 125.429 447.286 121.393L447.84 119.58L447.031 118.856C439.67 52.005 383.004 0 314.192 0H225.868Z" />
</svg>
